<?xml version="1.0" encoding="UTF-8"?>
<svg width="32px" height="27px" viewBox="0 0 32 27" version="1.1" xmlns="http://www.w3.org/2000/svg" xmlns:xlink="http://www.w3.org/1999/xlink">
    <!-- Generator: Sketch 58 (84663) - https://sketch.com -->
    <title>2. Global/Icon/Colored/32px/Classifieds</title>
    <desc>Created with Sketch.</desc>
    <g id="Mobile-Web" stroke="none" stroke-width="1" fill="none" fill-rule="evenodd">
        <g id="Artboard" transform="translate(-23.000000, -26.000000)">
            <g id="2.-Global/Icon/Colored/32px/Classifieds" transform="translate(25.000000, 26.000000)">
                <g id="Shape">
                    <path d="M3.63636364,18.7727273 L25.3636364,18.7727273 L25.3636364,3 C25.3636364,1.8954305 24.4682059,1 23.3636364,1 L5.63636364,1 C4.53179414,1 3.63636364,1.8954305 3.63636364,3 L3.63636364,18.7727273 Z" id="Rectangle-7" stroke="#E00000" stroke-width="2" fill="#F7BABA"></path>
                    <path d="M4.39393939,22.0795455 L4.39393939,25.7045455" id="Line-5" stroke="#E00000" stroke-width="2" stroke-linecap="round"></path>
                    <path d="M24.6060606,22.0795455 L24.6060606,25.7045455" id="Line-5-Copy-3" stroke="#E00000" stroke-width="2" stroke-linecap="round"></path>
                    <path d="M8.78787879,22.0795455 L8.78787879,23.6331169" id="Line-5-Copy" stroke="#E00000" stroke-width="2" stroke-linecap="round"></path>
                    <path d="M21.0909091,22.0795455 L21.0909091,23.6331169" id="Line-5-Copy-2" stroke="#E00000" stroke-width="2" stroke-linecap="round"></path>
                    <path d="M14.3338745,16.3831169 L6.42525784,16.3831169 L6.42525784,14.6342375 C6.42525784,13.7573326 6.11384055,12.9089245 5.54652265,12.2402597 C4.98912138,11.5832831 4.1711007,11.2045455 3.309524,11.2045455 L1.96820571,11.2045455 C0.863636205,11.2045455 -0.031794295,12.099976 -0.031794295,13.2045455 C-0.031794295,13.3709194 -0.0110343991,13.5366432 0.030004286,13.6978762 L1.64808908,20.0550191 C1.87367956,20.9413205 2.67172979,21.5616883 3.5862905,21.5616883 L14.3338745,21.5616883 L14.3338745,21.5616883" id="Path-3" stroke="#E00000" stroke-width="2" fill="#FFFFFF" stroke-linejoin="round"></path>
                    <path d="M28.3195185,16.3831169 L20.4109018,16.3831169 L20.4109018,14.6342375 C20.4109018,13.7573326 20.0994845,12.9089245 19.5321666,12.2402597 C18.9747654,11.5832831 18.1567447,11.2045455 17.295168,11.2045455 L15.9538497,11.2045455 C14.8492802,11.2045455 13.9538497,12.099976 13.9538497,13.2045455 C13.9538497,13.3709194 13.9746096,13.5366432 14.0156483,13.6978762 L14.059763,13.8711946 L14.059763,13.8711946 L15.6337331,20.0550191 C15.8593235,20.9413205 16.6573738,21.5616883 17.5719345,21.5616883 L28.3195185,21.5616883 L28.3195185,21.5616883" id="Path-3-Copy" stroke="#E00000" stroke-width="2" fill="#FFFFFF" stroke-linejoin="round" transform="translate(21.189641, 16.383117) scale(-1, 1) translate(-21.189641, -16.383117) "></path>
                    <circle id="Oval-3" fill="#E00000" cx="14.5" cy="6.59090909" r="1.31818182"></circle>
                    <circle id="Oval-3-Copy-2" fill="#E00000" cx="18.4545455" cy="10.5454545" r="1.31818182"></circle>
                    <circle id="Oval-3-Copy" fill="#E00000" cx="10.5454545" cy="10.5454545" r="1.31818182"></circle>
                </g>
            </g>
        </g>
    </g>
</svg>