<svg width="14" height="14" viewBox="0 0 14 14" fill="none" xmlns="http://www.w3.org/2000/svg">
<path d="M13.5 12.6667L10 9.16668C10.8333 8.16668 11.25 7.00001 11.25 5.75001C11.25 2.75001 8.83334 0.333344 5.83334 0.333344C2.75001 0.333344 0.333344 2.75001 0.333344 5.75001C0.333344 8.75001 2.75001 11.1667 5.75001 11.1667C7.00001 11.1667 8.16668 10.75 9.16668 9.91668L12.6667 13.4167C12.75 13.5 12.9167 13.5833 13.0833 13.5833C13.25 13.5833 13.4167 13.5 13.5 13.4167C13.5833 13.3333 13.6667 13.1667 13.6667 13C13.6667 12.9167 13.5833 12.75 13.5 12.6667ZM5.75001 10C3.41668 10 1.50001 8.08334 1.50001 5.75001C1.50001 3.41668 3.41668 1.50001 5.75001 1.50001C8.08334 1.50001 10 3.41668 10 5.75001C10 8.16668 8.16668 10 5.75001 10Z" fill="#666b72"/>
</svg>
