<?xml version="1.0" encoding="UTF-8"?>
<svg width="28px" height="28px" viewBox="0 0 28 28" version="1.1" xmlns="http://www.w3.org/2000/svg" xmlns:xlink="http://www.w3.org/1999/xlink">
    <!-- Generator: Sketch 58 (84663) - https://sketch.com -->
    <title>2. Global/Icon/Colored/32px/Jobs</title>
    <desc>Created with Sketch.</desc>
    <g id="Mobile-Web" stroke="none" stroke-width="1" fill="none" fill-rule="evenodd">
        <g id="Artboard" transform="translate(-138.000000, -25.000000)">
            <g id="2.-Global/Icon/Colored/32px/Jobs" transform="translate(136.000000, 23.000000)">
                <g id="Shape" transform="translate(3.000000, 3.000000)">
                    <path d="M19.9333333,2.96035774 L23.321,2.96035774 C24.8005709,2.96035774 26,4.15978688 26,5.6393577 L26,21.321 C26,22.8005709 24.8005709,24 23.321,24 L2.67899996,24 C1.19942914,24 1.81195167e-16,22.8005709 0,21.321 L0,5.6393577 C-6.25284377e-16,4.15978688 1.19942914,2.96035774 2.67899996,2.96035774 L6.06666667,2.96035774 L6.06666667,2.96035774 L6.06666667,1.22453369 L8.16713723,0 L19.0177046,0 L19.9333333,0.762602959 L19.9333333,2.96035774 Z" fill="#FFFFFF"></path>
                    <polygon id="Path-2" fill="#F7BABA" points="8 9 11.6666667 12 15.3333333 12 19 9 13.5 6"></polygon>
                    <polyline stroke="#E00000" stroke-width="1.88" stroke-linecap="round" stroke-linejoin="round" points="9 9 11.3673469 11 14.7142857 11 17 9"></polyline>
                    <path d="M21.1151515,2.99982944 C21.8504399,2.99982944 22.5857283,2.99982944 23.3210167,2.99982944 C24.8005875,2.99982944 26.0000166,4.19925858 26.0000166,5.6788294 L26.0000166,21.321 C26.0000166,22.8005709 24.8005875,24 23.3210167,24 L2.67890642,24 C1.1993356,24 -9.35398213e-05,22.8005709 -9.35398213e-05,21.321 L-9.35398213e-05,5.6788294 C-9.35398213e-05,4.19925858 1.1993356,2.99982944 2.67890642,2.99982944 L4.88484848,2.99982944 L4.88484848,2.99982944" stroke="#E00000" stroke-width="1.88" stroke-linecap="round" stroke-linejoin="round"></path>
                    <path d="M20,14.5 L22,14.5" id="Path-27" stroke="#E00000" stroke-width="2" stroke-linecap="round" stroke-linejoin="round"></path>
                    <path d="M11.1956707,12 L9.99043642,23.012695 C9.90032292,23.8360971 10.327103,24.6298418 11.0636751,25.0087522 L12.9905828,26 L12.9905828,26 L14.9313812,25.0096866 C15.6740239,24.6307451 16.1036861,23.8308628 16.0095789,23.0024555 L14.7596981,12 L14.7596981,12 L11.1956707,12 Z" stroke="#E00000" stroke-width="1.88" fill="#F7BABA" stroke-linecap="round" stroke-linejoin="round"></path>
                    <path d="M7.20710678,0.5 L13.2071068,6.5 L13.9324792,6.5 L18.9324792,0.5 L7.20710678,0.5 Z" id="Rectangle" stroke="#979797" fill="#F7BABA"></path>
                    <path d="M18.8333333,0.405746046 L14.1666667,6.3378949 L18.5493179,9.84241224 C18.9345035,10.1504198 19.4964477,10.0878546 19.8044552,9.70266898 C19.9310497,9.54435355 20.0000149,9.34767842 20.0000149,9.14497193 L20.0000149,1.78599755 C20.0000149,0.799617002 19.2003955,-2.42299216e-06 18.214015,-2.42299216e-06 L7.78599997,-2.42299216e-06 C6.79961942,-2.42299216e-06 6,0.799617002 6,1.78599755 L6,9.22396111 C6,9.71715138 6.39980971,10.1169611 6.89299999,10.1169611 C7.06506409,10.1169611 7.23346442,10.0672517 7.37794637,9.97381175 L13,6.3378949 L13,6.3378949 L7.16666667,0.405746046 L18.8333333,0.405746046 Z" stroke="#E00000" stroke-width="1.88" stroke-linecap="round" stroke-linejoin="round"></path>
                </g>
            </g>
        </g>
    </g>
</svg>