 <svg
    xmlns="http://www.w3.org/2000/svg"
    xmlnsXlink="http://www.w3.org/1999/xlink"
    width="24"
    height="24"
    viewBox="0 0 24 24"
  >
    <defs />
    <g id="Icons" stroke="none" strokeWidth="1" fill="none" fillRule="evenodd">
      <g
        transform="translate(-766.000000, -253.000000)"
        fill="#b6b8b9"
        fillRule="nonzero"
        id="Line/24px/Message"
      >
        <g transform="translate(768.000000, 255.000000)">
          <path
            d="M6.72727273,8.95 C6.17498798,8.95 5.72727273,8.50228475 5.72727273,7.95 C5.72727273,7.39771525 6.17498798,6.95 6.72727273,6.95 L13.2727273,6.95 C13.825012,6.95 14.2727273,7.39771525 14.2727273,7.95 C14.2727273,8.50228475 13.825012,8.95 13.2727273,8.95 L6.72727273,8.95 Z M6.72727273,12.35 C6.17498798,12.35 5.72727273,11.9022847 5.72727273,11.35 C5.72727273,10.7977153 6.17498798,10.35 6.72727273,10.35 L10.8181818,10.35 C11.3704666,10.35 11.8181818,10.7977153 11.8181818,11.35 C11.8181818,11.9022847 11.3704666,12.35 10.8181818,12.35 L6.72727273,12.35 Z M18.3581799,18.8956773 C18.4385642,19.6620075 17.6585372,20.2275004 16.9552025,19.9127879 L12.4675323,17.9047456 C11.7082999,18.1117786 10.9180832,18.2 10,18.2 C4.47591386,18.2 0,14.1744926 0,9.1 C0,4.02550743 4.47591386,0 10,0 C15.5240861,0 20,4.02550743 20,9.1 C20,11.1186696 19.2531403,13.0347566 17.9125926,14.6477454 L18.3581799,18.8956773 Z M15.8781838,14.4243227 C15.8484517,14.1408766 15.9410746,13.8582111 16.1327872,13.6473272 C17.3392447,12.3202239 18,10.7454239 18,9.1 C18,5.18015295 14.4640257,2 10,2 C5.53597425,2 2,5.18015295 2,9.1 C2,13.0198471 5.53597425,16.2 10,16.2 C10.8742512,16.2 11.5658589,16.1072234 12.2229862,15.8903714 C12.4597687,15.8122331 12.717201,15.8253723 12.9447975,15.9272121 L16.1880554,17.3784326 L15.8781838,14.4243227 Z"
            id="Shape"
          />
        </g>
      </g>
    </g>
  </svg>