<?xml version="1.0" encoding="UTF-8"?>
<svg width="31px" height="28px" viewBox="0 0 31 28" version="1.1" xmlns="http://www.w3.org/2000/svg" xmlns:xlink="http://www.w3.org/1999/xlink">
    <!-- Generator: Sketch 58 (84663) - https://sketch.com -->
    <title>2. Global/Icon/Colored/32px/Motors</title>
    <desc>Created with Sketch.</desc>
    <g id="Mobile-Web" stroke="none" stroke-width="1" fill="none" fill-rule="evenodd">
        <g id="Artboard" transform="translate(-193.000000, -25.000000)">
            <g id="2.-Global/Icon/Colored/32px/Motors" transform="translate(193.000000, 23.000000)">
                <g id="Shape" transform="translate(1.333333, 2.666667)">
                    <polygon id="Path-26" fill="#FFFFFF" points="5.02215751 0.587408368 3.54412663 10.4459758 0.422453704 13.5305911 0.422453704 18.3766071 1.96283232 20.5708349 1.96283232 23.6410227 3.54412663 25.87235 6.73321303 25.87235 7.7455843 24.4374248 7.7455843 20.5708349 21.0942334 20.5708349 21.0942334 23.6410227 21.9674913 25.87235 25.6093781 25.4040722 26.3368981 24.4374248 26.3368981 20.5708349 28.3834624 19.1664137 28.3834624 14.9313024 25.1051408 10.4459758 23.4965693 1.34671097 21.0942334 0 9.06813553 0"></polygon>
                    <path d="M25.5162037,10.8148148 L24.0737778,4.01008418 C23.8330637,2.25759259 22.6778218,0.983164983 21.3301944,0.983164983 L7.39665741,0.983164983 C6.04903009,0.983164983 4.89471759,2.25759259 4.65307407,4.01008418 L3.21064815,10.8148148" stroke="#E00000" stroke-width="2" fill="#F7BABA" stroke-linecap="round" stroke-linejoin="round"></path>
                    <path d="M7.85763889,20.6464646 L7.85763889,22.7740951 C7.85763889,24.3139724 6.60932172,25.5622896 5.06944444,25.5622896 C3.52956717,25.5622896 2.28125,24.3139724 2.28125,22.7740951 L2.28125,19.6464646 L2.28125,19.6464646" stroke="#E00000" stroke-width="2" fill="#FBD9D9" stroke-linecap="round" stroke-linejoin="round"></path>
                    <path d="M26.4456019,19.6464646 L26.4456019,22.7740951 C26.4456019,24.3139724 25.1972847,25.5622896 23.6574074,25.5622896 C22.1175301,25.5622896 20.869213,24.3139724 20.869213,22.7740951 L20.869213,20.6464646 L20.869213,20.6464646" stroke="#E00000" stroke-width="2" fill="#FBD9D9" stroke-linecap="round" stroke-linejoin="round"></path>
                    <path d="M22.6443173,20.6464646 L6.08253451,20.6464646 C2.9565582,20.6464646 0.422453704,18.1123602 0.422453704,14.9863838 L0.422453704,14.9863838 L0.422453704,14.9863838 C0.422453704,14.2037845 0.716143519,13.4536296 1.23939468,12.9010909 L3.21064815,10.8148148 L25.5162037,10.8148148 L27.4874572,12.9001077 C28.0107083,13.4536296 28.3043981,14.2037845 28.3043981,14.9863838 C28.3043981,18.1123602 25.7702937,20.6464646 22.6443173,20.6464646 Z" stroke="#E00000" stroke-width="2" stroke-linecap="round" stroke-linejoin="round"></path>
                    <circle id="Oval" fill="#E00000" fill-rule="nonzero" cx="4.54398148" cy="16.0808081" r="1.33333333"></circle>
                    <circle id="Oval" fill="#E00000" fill-rule="nonzero" cx="24.4652778" cy="16.0808081" r="1.33333333"></circle>
                    <path d="M20.7777778,10.6666667 C20.7777778,9.19390733 19.6833627,8 18.3333333,8 C16.9833039,8 15.8888889,9.19390733 15.8888889,10.6666667" id="Oval-2" stroke="#E00000" stroke-width="2" stroke-linecap="round" stroke-linejoin="round"></path>
                    <path d="M10.6666667,16.0287624 L18.666615,16" id="Path-20-Copy-2" stroke="#E00000" stroke-width="2" stroke-linecap="round"></path>
                </g>
            </g>
        </g>
    </g>
</svg>