<svg width="111" height="36" viewBox="0 0 111 36" fill="none" xmlns="http://www.w3.org/2000/svg">
<path d="M73.257 21.83C72.715 22.26 72.347 22.864 71.734 23.64C71.0572 24.4926 70.3954 25.3571 69.749 26.233C69.052 27.185 68.339 28.211 67.633 29.244C66.926 30.277 66.28 31.17 65.714 32.239H73.438V35.269H61.506V32.967C62.049 32.15 62.479 31.26 63.101 30.298C63.723 29.338 64.384 28.371 65.044 27.399C65.6841 26.4501 66.3429 25.5139 67.02 24.591C67.67 23.712 68.26 22.971 68.77 22.259H61.868V19.229H73.258V21.831L73.257 21.83ZM87.358 21.83C86.8596 22.4251 86.3712 23.0285 85.893 23.64C85.2284 24.4933 84.5783 25.3577 83.943 26.233C83.249 27.185 82.553 28.211 81.849 29.244C81.145 30.277 80.515 31.17 79.952 32.239H87.539V35.269H75.789V32.967C76.33 32.15 76.744 31.26 77.363 30.298C77.983 29.338 78.635 28.371 79.292 27.399C79.9279 26.4502 80.5823 25.514 81.255 24.591C81.903 23.712 82.486 22.971 82.993 22.259H76.15V19.229H87.358V21.83ZM94.048 11.744V35.27H90.25V12.787L90.265 12.78C90.851 12.203 93.423 11.743 94.012 11.743L94.046 11.744H94.048ZM96.164 27.322C96.164 25.912 96.377 24.674 96.802 23.61C97.227 22.547 97.792 21.662 98.498 20.957C99.1872 20.2615 100.014 19.7179 100.926 19.361C101.817 19.0074 102.767 18.8252 103.726 18.824C105.967 18.824 107.716 19.51 108.97 20.88C110.226 22.25 110.853 24.296 110.853 27.016C110.853 27.22 110.848 27.411 110.838 27.666C110.828 27.923 110.812 28.14 110.791 28.318H100.054C100.158 29.744 100.619 30.643 101.439 31.348C102.259 32.054 103.447 32.426 105.003 32.426C105.915 32.426 106.75 32.355 107.508 32.191C108.265 32.027 108.861 31.858 109.298 31.674L109.795 34.714C109.519 34.8431 109.233 34.951 108.94 35.037C108.576 35.15 108.161 35.253 107.694 35.345C107.228 35.437 106.724 35.514 106.185 35.575C105.645 35.637 105.095 35.667 104.535 35.667C103.105 35.667 101.859 35.457 100.801 35.038C99.743 34.619 98.871 34.036 98.187 33.29C97.4944 32.5305 96.9742 31.6303 96.662 30.651C96.33 29.639 96.164 28.53 96.164 27.322ZM107.088 25.645C107.088 25.11 107.015 24.658 106.87 24.198C106.737 23.7631 106.521 23.3585 106.232 23.007C105.952 22.67 105.61 22.407 105.205 22.212C104.8 22.017 104.318 21.922 103.758 21.922C103.177 21.922 102.668 22.029 102.233 22.244C101.812 22.4481 101.436 22.7351 101.128 23.088C100.824 23.4373 100.587 23.8393 100.428 24.274C100.261 24.724 100.148 25.11 100.085 25.644H107.088V25.645ZM28.243 19.229H32.039V28.212C32.039 29.296 31.947 30.292 31.719 31.202C31.491 32.112 31.135 32.893 30.606 33.548C30.076 34.203 29.371 34.711 28.489 35.078C27.608 35.447 26.213 35.625 24.906 35.625C23.599 35.625 22.207 35.447 21.325 35.079C20.443 34.711 19.742 34.205 19.213 33.55C18.684 32.896 18.313 32.114 18.085 31.204C17.856 30.294 17.757 29.296 17.757 28.212V19.23H21.554V27.63C21.554 29.348 21.767 30.576 22.276 31.312C22.783 32.046 23.626 32.414 24.886 32.416C26.146 32.414 27.011 32.046 27.518 31.312C28.027 30.576 28.243 29.348 28.243 27.63V19.229ZM0.0400085 27.261C0.0400085 26.014 0.199009 24.873 0.520009 23.841C0.842009 22.808 1.30201 21.923 1.90401 21.186C2.50893 20.4471 3.28175 19.8636 4.15801 19.484C5.06001 19.084 6.07601 18.885 7.21801 18.885C7.92398 18.8773 8.62743 18.9706 9.30701 19.162C9.94001 19.346 10.525 19.55 10.887 19.775V12.787L10.907 12.78C11.493 12.203 14.07 11.743 14.658 11.743L14.683 11.744V34.778C13.96 35.003 13.005 35.208 11.873 35.391C10.743 35.575 9.56301 35.667 8.31801 35.667C7.03101 35.667 5.88001 35.473 4.86301 35.085C3.8831 34.7203 2.99569 34.1439 2.26401 33.397C1.55001 32.661 1.00001 31.777 0.616009 30.743C0.233009 29.711 0.0410085 28.55 0.0410085 27.261H0.0400085ZM3.90001 27.2C3.90001 28.836 4.28801 30.12 5.07601 31.05C5.86601 31.981 6.94901 32.446 8.33801 32.446C8.94001 32.446 9.44301 32.421 9.86801 32.369C10.293 32.319 10.707 32.262 10.888 32.201V22.966C10.4815 22.7091 10.0449 22.5032 9.58801 22.353C9.02854 22.1657 8.44198 22.0721 7.85201 22.076C6.48201 22.076 5.48201 22.536 4.84901 23.457C4.21601 24.377 3.89901 25.625 3.89901 27.2H3.90001ZM49.288 23.84C49.61 24.873 49.77 26.014 49.77 27.261C49.77 28.55 49.578 29.711 49.195 30.743C48.811 31.777 48.261 32.661 47.545 33.397C46.8136 34.1438 45.9266 34.7201 44.947 35.085C43.93 35.473 42.779 35.667 41.492 35.667C40.247 35.667 39.059 35.575 37.929 35.391C36.798 35.207 35.835 35.003 35.112 34.778V12.788C35.112 12.786 35.119 12.781 35.12 12.78C35.707 12.203 38.27 11.743 38.86 11.743L38.909 11.744V19.774C39.27 19.549 39.863 19.345 40.494 19.162C41.1729 18.9706 41.8757 18.8773 42.581 18.885C43.723 18.885 44.744 19.085 45.647 19.484C46.5238 19.8636 47.2972 20.4471 47.903 21.186C48.505 21.923 48.966 22.808 49.288 23.84ZM44.728 31.05C45.518 30.12 45.913 28.836 45.913 27.2C45.913 25.625 45.599 24.377 44.966 23.457C44.333 22.537 43.336 22.077 41.966 22.077C41.344 22.077 40.766 22.168 40.216 22.353C39.666 22.536 39.27 22.741 38.909 22.966V32.201C39.089 32.262 39.51 32.319 39.936 32.369C40.361 32.421 40.859 32.446 41.461 32.446C42.851 32.446 43.94 31.981 44.728 31.05ZM55.393 19.23H55.36H55.45C55.666 19.23 57.23 19.24 57.698 19.537C58.296 19.917 58.664 20.433 58.666 21.107C58.667 21.741 58.463 26.8 58.379 27.295C58.295 27.789 57.778 27.462 57.555 28.722C57.332 29.982 56.8 35.363 56.667 35.495C56.472 35.687 55.621 35.84 55.425 35.84C55.229 35.84 54.378 35.687 54.183 35.495C54.05 35.363 53.517 29.983 53.294 28.722C53.071 27.462 52.552 27.789 52.468 27.295C52.384 26.8 52.176 21.741 52.178 21.107C52.178 20.433 52.538 19.917 53.137 19.537C53.639 19.217 55.393 19.23 55.393 19.23ZM57.635 16.38C57.635 17.561 56.664 18.517 55.47 18.517C54.273 18.517 53.305 17.561 53.305 16.381C53.305 15.204 54.273 14.248 55.47 14.248C56.664 14.248 57.635 15.204 57.635 16.381V16.38Z" fill="white"/>
<path d="M54.177 7.646C50.717 10.494 50.979 13.401 50.977 13.692C51.004 14.668 51.307 15.591 51.819 16.361C50.518 15.509 49.782 13.471 49.672 11.711C49.66 11.527 49.172 8.666 52.632 5.528C56.65 1.883 56.137 0.166 56.137 0.166C56.137 0.166 57.317 1.159 57.317 3.333C57.318 4.761 55.411 6.635 54.177 7.646ZM60.735 13.951C60.801 15.609 59.906 17.481 58.303 18.049C58.653 17.526 58.859 16.899 58.859 16.225C58.859 14.397 57.349 12.909 55.494 12.909C54.7975 12.9069 54.1175 13.1209 53.5477 13.5213C52.9778 13.9218 52.5461 14.489 52.312 15.145C51.617 13.629 52.005 11.469 53.444 9.792C55.287 7.647 57.818 6.675 58.354 3.328C60.104 5.954 58.529 8.068 59.452 10.54C60.104 12.078 60.666 12.217 60.735 13.951Z" fill="#E00000"/>
</svg>
